 http://www.shotpix.com/images/04313664244590673961.jpg


Format : AVI
Format/Info : Audio Video Interleave
File size : 702 MiB
Duration : 1h 30mn
Overall bit rate : 1 090 Kbps
Writing library : VirtualDub build 32842/release

Video
ID : 0
Format : MPEG-4 Visual
Format profile : Advanced Simple@L5
Format settings, BVOP : 4
Format settings, QPel : No
Format settings, GMC : No warppoints
Format settings, Matrix : Default (H.263)
Muxing mode : Packed bitstream
Codec ID : XVID
Codec ID/Hint : XviD
Duration : 1h 30mn
Bit rate : 953 Kbps
Width : 640 pixels
Height : 272 pixels
Display aspect ratio : 2.35:1
Frame rate : 24.000 fps
Color space : YUV
Chroma subsampling : 4:2:0
Bit depth : 8 bits
Scan type : Progressive
Compression mode : Lossy
Bits/(Pixel*Frame) : 0.228
Stream size : 613 MiB (87%)
Writing library : XviD 64

Audio
ID : 1
Format : MPEG Audio
Format version : Version 1
Format profile : Layer 3
Codec ID : 55
Codec ID/Hint : MP3
Duration : 1h 30mn
Bit rate mode : Constant
Bit rate : 128 Kbps
Channel(s) : 2 channels
Sampling rate : 44.1 KHz
Compression mode : Lossy
Stream size : 82.4 MiB (12%)
Alignment : Split accross interleaves
Interleave, duration : 42 ms (1.00 video frame)
Interleave, preload duration : 500 ms
Writing library : LAME3.99r
Encoding settings : -m s -V 4 -q 3 -lowpass 17 -b 128

Plot
A year after witnessing a murder, residents of Tower Block 31 find themselves being picked off
by a sniper, pitting those lucky enough to be alive into a battle for survival.

 
http://www.shotpix.com/images/00450764107982510091.png 
http://www.shotpix.com/images/14712217516987755745.png 
http://www.shotpix.com/images/81241848867197375126.png